<svg width="21" height="21" viewBox="0 0 21 21" fill="none" xmlns="http://www.w3.org/2000/svg">
<path d="M18.1535 9.15262L18.1494 9.13622L15.8484 3.28944C15.7459 2.95927 15.4403 2.73163 15.0938 2.73163H5.7668C5.41817 2.73163 5.1085 2.96337 5.01007 3.29764L2.8588 9.08495L2.85264 9.0993L2.84854 9.11571C2.82188 9.2162 2.81368 9.31874 2.82803 9.41922C2.82598 9.45204 2.82393 9.48485 2.82393 9.51766V17.0215C2.82448 17.352 2.95602 17.6688 3.18973 17.9025C3.42345 18.1363 3.74028 18.2678 4.07081 18.2683H16.9333C17.6203 18.2683 18.1802 17.7085 18.1822 17.0215V9.51766C18.1822 9.491 18.1822 9.46434 18.1802 9.44178C18.1884 9.3413 18.1802 9.24491 18.1535 9.15262ZM12.0873 8.27079L12.0812 8.59276C12.0648 9.51356 11.429 10.1329 10.5 10.1329C10.0468 10.1329 9.65714 9.98729 9.37618 9.71044C9.09522 9.43358 8.94141 9.04803 8.93321 8.59276L8.92706 8.27079H4.70655L6.33692 4.30663H14.5236L16.1991 8.27079H12.0873ZM4.39688 9.84579H7.62276C8.1211 11.0168 9.18135 11.7079 10.5021 11.7079C11.1932 11.7079 11.8351 11.5151 12.3539 11.1501C12.8092 10.8302 13.164 10.3831 13.3937 9.84579H16.6031V16.6933H4.39688V9.84579Z" fill="#484848"/>
</svg>
