<svg width="21" height="21" viewBox="0 0 21 21" fill="none" xmlns="http://www.w3.org/2000/svg">
<path d="M8.53125 1.3125V3.9375L7.21875 4.59375L5.25 2.625L2.625 5.25L4.59375 7.21875L3.9375 8.53125H1.3125V12.4688H3.9375L4.59375 13.7812L2.625 15.75L5.25 18.375L7.21875 16.4062L8.53125 17.0625V19.6875H12.4688V17.0625L13.7812 16.4062L15.75 18.375L18.375 15.75L16.4062 13.7812L17.0625 12.4688H19.6875V8.53125H17.0625L16.4062 7.21875L18.375 5.25L15.75 2.625L13.7812 4.59375L12.4688 3.9375V1.3125H8.53125Z" stroke="#484848" stroke-linecap="round" stroke-linejoin="round"/>
<path d="M10.5 13.125C11.9497 13.125 13.125 11.9497 13.125 10.5C13.125 9.05025 11.9497 7.875 10.5 7.875C9.05025 7.875 7.875 9.05025 7.875 10.5C7.875 11.9497 9.05025 13.125 10.5 13.125Z" stroke="#484848" stroke-linecap="round" stroke-linejoin="round"/>
</svg>
