<svg width="18" height="17" viewBox="0 0 18 17" fill="none" xmlns="http://www.w3.org/2000/svg">
<path d="M13.6162 16.6905C13.4744 16.6901 13.3347 16.6553 13.2093 16.589L8.74947 14.244L4.2896 16.589C4.14519 16.6646 3.98252 16.6985 3.81993 16.6866C3.65733 16.6748 3.50128 16.6177 3.36937 16.5219C3.23746 16.4261 3.13494 16.2954 3.07336 16.1444C3.01178 15.9935 2.99359 15.8283 3.02085 15.6676L3.87222 10.7011L0.263723 7.18362C0.146989 7.06964 0.0644453 6.9253 0.025412 6.76689C-0.0136212 6.60848 -0.00758913 6.44231 0.0428273 6.28715C0.0932437 6.13199 0.186036 5.99401 0.310727 5.8888C0.435418 5.78359 0.58704 5.71533 0.748473 5.69174L5.7351 4.96724L7.96547 0.448743C8.04582 0.312104 8.16046 0.198821 8.29805 0.120113C8.43564 0.0414041 8.5914 0 8.74991 0C8.90842 0 9.06418 0.0414041 9.20177 0.120113C9.33936 0.198821 9.454 0.312104 9.53435 0.448743L11.7638 4.96724L16.7505 5.69174C16.9119 5.71533 17.0635 5.78359 17.1882 5.8888C17.3129 5.99401 17.4057 6.13199 17.4561 6.28715C17.5065 6.44231 17.5126 6.60848 17.4735 6.76689C17.4345 6.9253 17.352 7.06964 17.2352 7.18362L13.6267 10.7011L14.479 15.6676C14.5005 15.7932 14.4944 15.9219 14.461 16.0448C14.4276 16.1677 14.3678 16.2819 14.2857 16.3793C14.2036 16.4767 14.1013 16.555 13.9858 16.6088C13.8703 16.6625 13.7445 16.6904 13.6171 16.6905H13.6162Z" fill="#C4C4C4"/>
</svg>
